<svg width="352" height="386" viewBox="0 0 352 386" fill="none" xmlns="http://www.w3.org/2000/svg">
<g clip-path="url(#clip0_969_3599)">
<path d="M90.349 195.988L6.03906 215.73L215.362 286.811V210.639L93.7604 195.988" fill="#B9A8A6"/>
<path d="M452.294 322.543L272.296 386L6.03865 303.518C5.0004 300.482 3.60194 295.989 2.41537 290.396C-0.529859 276.414 -0.127273 264.99 0.296502 254.545C0.699087 244.65 1.77971 237.025 2.41537 233.034C3.47481 226.366 4.78851 220.558 6.03865 215.73C83.9284 241.423 161.839 267.093 239.729 292.786C251.425 293.527 263.1 294.268 274.796 295.033L267.762 323.858L267.274 350.149L269.393 369.269L272.826 379.666L444.815 318.336L452.316 322.567L452.294 322.543Z" fill="#92817F"/>
<path d="M468.25 180.834L369.659 138.53L64.9227 136.235L54.2012 143.286L235.746 224.191L468.25 180.834Z" fill="#B9A8A6"/>
<path d="M54.2012 143.286V197.446L231.996 303.518L472 255.931L456.914 250.96L236.361 294.005L230.682 271.73L230.576 247.422L235.746 224.191L54.2012 143.286Z" fill="#92817F"/>
<path d="M263.377 210.639L24.3043 127.081C21.0624 116.015 19.8334 106.311 19.3673 99.1888C19.0495 94.3608 18.4986 81.6694 21.4862 65.7275C23.3084 56.0476 25.8722 48.1842 28.0547 42.4719C104.61 66.4446 181.186 90.4172 257.74 114.39C253.693 123.329 251.532 131.431 250.324 137.43C247.866 149.596 248.121 159.108 248.205 161.331C248.375 166.398 248.566 171.8 250.324 178.062C251.617 182.723 255.155 192.665 265.156 201.963C319.548 185.232 373.918 168.502 428.31 151.771C432.547 153.348 436.806 154.926 441.044 156.503L263.355 210.615L263.377 210.639Z" fill="#92817F"/>
<path d="M27.6094 43.3563L213.244 0L441.065 71.0814L257.295 115.274L27.6094 43.3563Z" fill="#B9A8A6"/>
<path d="M257.294 115.274C254.709 121.345 251.509 130.475 249.878 142.115C248.967 148.664 248.861 153.611 248.861 155.452C248.818 162.837 248.67 173.616 253.543 185.065C256.976 193.119 261.553 198.664 264.795 201.987C319.483 185.423 374.171 168.86 428.859 152.273L427.927 75.0728L257.294 115.25V115.274Z" fill="#F1EEEE"/>
<path d="M235.745 224.191C232.885 232.58 229.071 247.16 230.13 265.444C230.808 277.418 233.372 287.218 235.745 294.125C309.503 279.641 383.24 265.133 456.998 250.649C455.409 240.348 454.095 229.043 453.248 216.805C452.464 205.476 452.209 194.864 452.315 185.089C380.125 198.139 307.935 211.165 235.745 224.215V224.191Z" fill="#F1EEEE"/>
<path d="M272.297 379.666C269.691 370.99 266.958 358.681 266.682 343.719C266.258 322.137 271.132 305.071 274.797 295.057C329.316 284.254 383.835 273.427 438.353 262.623C436.997 269.172 435.535 279.951 437.315 292.977C438.84 304.139 442.188 312.791 444.816 318.36C387.309 338.796 329.803 359.255 272.318 379.69L272.297 379.666Z" fill="#F1EEEE"/>
<path d="M420.68 87.2383C392.838 95.9382 363.089 104.232 331.539 111.737C304.163 118.262 277.783 123.639 252.59 128.085" fill="#92817F"/>
<path d="M420.68 87.2383C365.801 106.024 309.482 119.72 252.59 128.085C308.931 116.541 365.144 102.917 420.68 87.2383Z" fill="#92817F"/>
<path d="M420.68 102.917C392.838 111.617 363.089 119.911 331.539 127.416C304.163 133.941 277.783 139.318 252.59 143.764" fill="#92817F"/>
<path d="M420.68 102.917C365.801 121.703 309.482 135.399 252.59 143.764C308.931 132.22 365.144 118.596 420.68 102.917Z" fill="#92817F"/>
<path d="M420.68 117.186C392.838 125.886 363.089 134.18 331.539 141.684C304.163 148.209 277.783 153.587 252.59 158.033" fill="#92817F"/>
<path d="M420.68 117.186C365.801 135.972 309.482 149.667 252.59 158.033C308.931 146.489 365.144 132.865 420.68 117.186Z" fill="#92817F"/>
<path d="M424.918 130.81C397.076 139.51 367.327 147.803 335.777 155.308C308.401 161.833 282.022 167.211 256.828 171.656" fill="#92817F"/>
<path d="M424.918 130.81C370.039 149.596 313.72 163.291 256.828 171.656C313.169 160.112 369.383 146.489 424.918 130.81Z" fill="#92817F"/>
<path d="M427.779 141.78C400.149 151.341 370.633 160.566 339.295 169.099C312.089 176.484 285.857 182.699 260.791 187.909" fill="#92817F"/>
<path d="M427.779 141.78C373.388 162.287 317.428 177.751 260.77 187.909C316.814 174.596 372.646 159.204 427.779 141.78Z" fill="#92817F"/>
<path d="M448.693 199.573C413.71 207.293 376.376 214.511 336.838 220.845C302.512 226.342 269.5 230.716 237.992 234.157" fill="#92817F"/>
<path d="M448.693 199.573C379.279 216.495 308.805 228.039 238.014 234.133C308.424 224.812 378.876 213.316 448.693 199.573Z" fill="#92817F"/>
<path d="M448.078 214.296C413.095 222.016 375.76 229.234 336.222 235.567C301.897 241.065 268.885 245.439 237.377 248.88" fill="#92817F"/>
<path d="M448.078 214.296C378.664 231.218 308.19 242.762 237.398 248.856C307.809 239.535 378.261 228.039 448.078 214.296Z" fill="#92817F"/>
<path d="M452.761 228.517C417.779 236.237 380.444 243.455 340.906 249.789C306.58 255.286 273.568 259.66 242.061 263.101" fill="#92817F"/>
<path d="M452.761 228.517C383.347 245.439 312.874 256.983 242.082 263.078C312.492 253.756 382.945 242.26 452.761 228.517Z" fill="#92817F"/>
<path d="M455.853 239.965C421.104 248.594 384.002 256.792 344.676 264.153C310.541 270.559 277.677 275.769 246.275 280.047" fill="#92817F"/>
<path d="M455.853 239.965C386.926 258.704 316.834 272.088 246.275 280.023C316.368 268.885 386.46 255.549 455.853 239.965Z" fill="#92817F"/>
<path d="M430.722 271.544C405.137 279.682 377.811 287.364 348.861 294.188C323.722 300.115 299.527 304.856 276.437 308.663" fill="#92817F"/>
<path d="M430.722 271.544C380.571 289.087 328.773 301.569 276.437 308.663C328.269 298.587 379.875 286.189 430.722 271.544Z" fill="#92817F"/>
<path d="M430.537 286.398C404.951 294.535 377.625 302.215 348.675 309.038C323.535 314.963 299.34 319.703 276.25 323.51" fill="#92817F"/>
<path d="M430.537 286.398C380.385 303.938 328.587 316.417 276.25 323.51C328.083 313.436 379.689 301.041 430.537 286.398Z" fill="#92817F"/>
<path d="M434.236 300.671C408.65 308.807 381.324 316.488 352.374 323.311C327.235 329.236 303.039 333.976 279.949 337.782" fill="#92817F"/>
<path d="M434.236 300.671C384.085 318.21 332.286 330.69 279.949 337.782C331.782 327.708 383.388 315.313 434.236 300.671Z" fill="#92817F"/>
<path d="M436.706 312.187C411.305 321.251 384.182 329.904 355.392 337.743C330.396 344.549 306.322 350.169 283.334 354.811" fill="#92817F"/>
<path d="M436.706 312.187C387.009 331.516 335.536 345.849 283.334 354.811C334.926 342.886 386.228 328.616 436.706 312.187Z" fill="#92817F"/>
</g>
<defs>
<clipPath id="clip0_969_3599">
<rect width="472" height="386" fill="white"/>
</clipPath>
</defs>
</svg>
